<?xml version="1.0" standalone="no"?>
<!DOCTYPE svg PUBLIC "-//W3C//DTD SVG 20010904//EN"
 "http://www.w3.org/TR/2001/REC-SVG-20010904/DTD/svg10.dtd">
<svg version="1.0" xmlns="http://www.w3.org/2000/svg"
 width="512.000000pt" height="512.000000pt" viewBox="0 0 512.000000 512.000000"
 preserveAspectRatio="xMidYMid meet">

<g transform="translate(0.000000,512.000000) scale(0.100000,-0.100000)"
fill="#000000" stroke="none">
<path d="M975 4045 c-27 -8 -53 -14 -57 -15 -3 0 -31 -22 -61 -50 -61 -56
-100 -130 -122 -237 -28 -132 -11 -253 53 -388 51 -105 97 -155 145 -155 19 0
65 -9 102 -21 61 -19 68 -19 91 -4 59 38 11 115 -72 115 -54 0 -91 14 -127 48
-40 38 -57 108 -57 236 0 96 3 118 24 162 47 102 148 138 248 88 58 -30 85
-112 113 -344 42 -345 142 -546 309 -626 62 -30 80 -34 151 -34 88 0 162 19
189 49 16 17 15 18 -9 13 -14 -2 -45 3 -69 12 -143 55 -261 303 -325 682 -43
252 -115 376 -255 440 -95 43 -184 53 -271 29z"/>
<path d="M3970 4050 c-72 -15 -164 -66 -210 -116 -76 -82 -109 -177 -159 -451
-41 -222 -127 -433 -213 -522 -52 -54 -118 -85 -161 -77 -29 6 -30 6 -13 -13
29 -31 102 -51 191 -51 71 0 89 4 151 34 48 23 84 50 117 86 92 102 162 292
187 505 27 240 55 338 106 372 38 24 101 35 143 23 55 -14 90 -46 117 -104 21
-44 24 -66 24 -162 0 -129 -17 -198 -57 -236 -41 -38 -66 -48 -121 -48 -35 0
-57 -6 -76 -21 -34 -27 -35 -72 -2 -94 23 -15 30 -15 91 4 37 12 83 21 102 21
45 0 91 46 138 139 53 106 69 173 69 286 0 158 -44 277 -132 357 -72 64 -184
90 -292 68z"/>
<path d="M3080 3878 c-22 -37 -34 -99 -34 -179 1 -54 32 -131 80 -194 18 -25
27 -14 51 65 29 96 14 224 -37 308 -25 40 -35 40 -60 0z"/>
<path d="M1975 3861 c-8 -16 -24 -63 -35 -105 -19 -67 -20 -83 -10 -134 16
-74 40 -134 53 -129 19 6 86 130 92 171 6 43 -25 187 -46 212 -18 22 -37 16
-54 -15z"/>
<path d="M1958 3304 c-15 -8 -30 -25 -34 -39 -8 -34 13 -91 41 -109 31 -20
102 -20 149 -1 21 9 73 18 117 22 43 3 79 9 79 13 0 12 -67 60 -114 80 -40 18
-94 32 -176 44 -21 3 -46 -1 -62 -10z"/>
<path d="M3084 3305 c-39 -7 -92 -22 -119 -34 -52 -23 -115 -67 -115 -80 0 -4
36 -11 79 -14 44 -4 96 -13 117 -22 43 -18 107 -20 137 -3 68 36 71 134 4 158
-16 5 -30 10 -31 9 -1 0 -33 -7 -72 -14z"/>
<path d="M2170 3033 c-41 -21 -50 -55 -25 -102 27 -54 90 -74 144 -47 50 26
55 40 31 85 -34 69 -92 93 -150 64z"/>
<path d="M2856 3029 c-22 -17 -66 -94 -66 -115 0 -10 67 -44 88 -44 82 0 149
115 89 155 -42 27 -80 29 -111 4z"/>
<path d="M671 2929 c-50 -16 -75 -32 -121 -77 -67 -66 -96 -133 -106 -240 -17
-180 78 -290 316 -367 109 -36 133 -48 187 -98 55 -50 102 -141 110 -210 9
-75 35 -89 59 -32 17 41 18 109 3 190 -25 136 -92 202 -276 271 -114 43 -170
93 -187 167 -11 45 10 101 53 140 73 66 158 59 253 -20 218 -183 298 -243 376
-282 23 -12 42 -24 42 -26 0 -3 -11 -22 -23 -43 -47 -74 -69 -152 -75 -260 -6
-123 8 -197 53 -287 l32 -64 -25 -23 c-40 -37 -101 -138 -118 -195 -21 -72
-19 -175 4 -251 77 -246 299 -329 590 -219 111 41 209 107 335 226 62 58 121
103 152 117 l50 22 -29 8 c-51 13 -113 -13 -220 -90 -135 -98 -190 -131 -270
-161 -242 -91 -439 78 -337 290 16 33 42 75 57 93 28 31 30 32 69 20 22 -6 95
-11 165 -11 255 2 457 85 611 250 71 77 122 168 141 251 7 28 15 52 18 52 3 0
11 -24 18 -52 22 -97 71 -177 162 -268 121 -121 227 -177 404 -217 85 -18 294
-21 351 -5 39 12 41 11 69 -20 78 -89 106 -210 66 -287 -57 -113 -197 -152
-346 -96 -80 30 -135 63 -270 161 -107 77 -169 103 -220 90 l-29 -8 51 -23
c31 -14 88 -57 147 -113 204 -192 370 -273 562 -274 189 -1 307 83 366 260 17
52 21 81 17 157 -3 79 -8 101 -36 158 -18 36 -52 87 -75 113 l-43 47 32 65
c80 159 70 397 -23 544 -12 21 -23 39 -23 41 0 2 39 27 88 56 81 48 145 97
318 244 75 63 124 82 186 72 81 -14 149 -109 132 -182 -17 -74 -73 -124 -187
-167 -137 -51 -209 -103 -247 -176 -41 -80 -52 -272 -18 -306 26 -26 45 -7 51
50 7 70 54 162 110 213 54 50 78 62 187 98 238 77 333 187 316 367 -18 200
-140 324 -330 335 -147 9 -260 -32 -431 -154 -205 -147 -534 -269 -780 -289
l-81 -7 -14 44 c-9 29 -34 64 -71 102 -68 67 -81 72 -67 20 10 -38 4 -110 -14
-148 -14 -31 9 -108 67 -223 80 -159 200 -253 342 -268 225 -24 310 138 198
374 -47 100 -34 136 41 112 59 -20 136 -143 169 -270 26 -97 23 -259 -4 -332
-54 -141 -203 -219 -426 -222 -215 -2 -374 76 -598 294 l-119 116 -81 -84
c-234 -241 -448 -345 -667 -327 -205 17 -335 89 -386 211 -40 96 -37 262 7
397 43 133 140 241 198 222 34 -10 33 -39 -4 -116 -67 -142 -67 -256 0 -323
80 -81 254 -71 388 21 72 50 162 190 206 321 20 60 21 64 4 123 -13 48 -15 71
-7 110 6 27 7 49 3 49 -23 0 -109 -95 -130 -145 l-24 -55 -52 0 c-206 -1 -600
142 -808 292 -50 36 -118 80 -153 97 -123 62 -264 77 -381 40z"/>
</g>
</svg>
